<?xml version="1.0" encoding="UTF-8"?><svg id="uuid-7fac265e-d341-47b3-8d8c-d766c1d51a30" xmlns="http://www.w3.org/2000/svg" viewBox="0 0 162.82 162.82"><defs><style>.uuid-d4819d9a-837f-4012-8fc9-80c5f85fc0c5{fill:#e03837;stroke-width:0px;}</style></defs><g id="uuid-bace9373-9d79-41e7-b366-e2b0882b4d28"><path class="uuid-d4819d9a-837f-4012-8fc9-80c5f85fc0c5" d="m12.62,37.12c7.71-4.73,13.92-10.91,18.69-16.84V0H0v43.17c4.33-1.61,8.62-3.6,12.62-6.05Z"/><path class="uuid-d4819d9a-837f-4012-8fc9-80c5f85fc0c5" d="m6.58,48.34c-2.3,2.53-4.47,5.38-6.58,8.28v106.2h31.3V34.89c-6.45,1.54-17.23,5.21-24.73,13.45Z"/><path class="uuid-d4819d9a-837f-4012-8fc9-80c5f85fc0c5" d="m150.2,125.7c-7.71,4.73-13.92,10.91-18.69,16.84v20.28h31.3v-43.17c-4.33,1.61-8.62,3.6-12.62,6.05Z"/><path class="uuid-d4819d9a-837f-4012-8fc9-80c5f85fc0c5" d="m156.24,114.48c2.3-2.53,4.47-5.38,6.58-8.28V0h-31.3v127.93c6.45-1.54,17.23-5.21,24.73-13.45Z"/><path class="uuid-d4819d9a-837f-4012-8fc9-80c5f85fc0c5" d="m118.98,94.04c0,28.78-14.53,44.42-39.4,44.42h-4.43v24.35h-31.3V0h35.74c24.59,0,39.4,15.37,39.4,44.15v49.9ZM79.57,8.85h-4.42v120.76h4.42c5.6,0,8.1-3.34,8.1-11.45V20.03c0-7.83-2.5-11.18-8.1-11.18Z"/></g></svg>